<mxfile host="app.diagrams.net" modified="2022-04-09T13:45:00.822Z" agent="5.0 (Windows NT 6.3; Win64; x64) AppleWebKit/537.36 (KHTML, like Gecko) Chrome/100.0.4896.75 Safari/537.36" etag="Z5hHvkYbf0T2FOEd4Hv6" version="17.4.2" type="github">
  <diagram name="Page-1" id="c4acf3e9-155e-7222-9cf6-157b1a14988f">
    <mxGraphModel dx="1447" dy="803" grid="1" gridSize="10" guides="1" tooltips="1" connect="1" arrows="1" fold="1" page="1" pageScale="1" pageWidth="850" pageHeight="1100" background="none" math="0" shadow="0">
      <root>
        <mxCell id="0" />
        <mxCell id="1" parent="0" />
        <mxCell id="wI_4iZvUZmhfUL_TO4hT-13" value="" style="edgeStyle=orthogonalEdgeStyle;rounded=0;orthogonalLoop=1;jettySize=auto;html=1;startArrow=diamondThin;startFill=0;endArrow=none;endFill=0;startSize=12;endSize=6;sourcePerimeterSpacing=14;targetPerimeterSpacing=0;exitX=0.5;exitY=1;exitDx=0;exitDy=0;strokeWidth=1;" edge="1" parent="1" source="wI_4iZvUZmhfUL_TO4hT-1" target="wI_4iZvUZmhfUL_TO4hT-12">
          <mxGeometry relative="1" as="geometry">
            <Array as="points">
              <mxPoint x="425" y="130" />
              <mxPoint x="145" y="130" />
            </Array>
          </mxGeometry>
        </mxCell>
        <mxCell id="wI_4iZvUZmhfUL_TO4hT-18" value="" style="edgeStyle=orthogonalEdgeStyle;rounded=0;orthogonalLoop=1;jettySize=auto;html=1;startArrow=diamondThin;startFill=0;endArrow=none;endFill=0;startSize=12;endSize=6;sourcePerimeterSpacing=14;targetPerimeterSpacing=0;strokeWidth=1;exitX=0.5;exitY=1;exitDx=0;exitDy=0;" edge="1" parent="1" source="wI_4iZvUZmhfUL_TO4hT-1" target="wI_4iZvUZmhfUL_TO4hT-17">
          <mxGeometry relative="1" as="geometry">
            <Array as="points">
              <mxPoint x="425" y="130" />
              <mxPoint x="445" y="130" />
            </Array>
          </mxGeometry>
        </mxCell>
        <mxCell id="wI_4iZvUZmhfUL_TO4hT-34" value="" style="edgeStyle=orthogonalEdgeStyle;rounded=0;orthogonalLoop=1;jettySize=auto;html=1;startArrow=diamondThin;startFill=0;endArrow=none;endFill=0;startSize=12;endSize=6;sourcePerimeterSpacing=0;targetPerimeterSpacing=0;strokeWidth=1;" edge="1" parent="1" source="wI_4iZvUZmhfUL_TO4hT-1" target="wI_4iZvUZmhfUL_TO4hT-33">
          <mxGeometry relative="1" as="geometry">
            <Array as="points">
              <mxPoint x="425" y="130" />
              <mxPoint x="700" y="130" />
            </Array>
          </mxGeometry>
        </mxCell>
        <mxCell id="wI_4iZvUZmhfUL_TO4hT-1" value="&lt;p style=&quot;margin: 0px ; margin-top: 4px ; text-align: center&quot;&gt;&lt;span style=&quot;font-family: &amp;#34;nunito&amp;#34; , sans-serif ; font-size: 16px ; letter-spacing: -0.64px ; text-align: left ; background-color: rgb(255 , 255 , 255)&quot;&gt;Hava yolu şirketi&lt;/span&gt;&lt;br&gt;&lt;/p&gt;&lt;hr size=&quot;1&quot;&gt;&lt;p style=&quot;margin: 0px ; margin-left: 4px&quot;&gt;+ id : int&lt;br&gt;&lt;/p&gt;&lt;hr size=&quot;1&quot;&gt;&lt;p style=&quot;margin: 0px ; margin-left: 4px&quot;&gt;&lt;br&gt;&lt;/p&gt;" style="verticalAlign=top;align=left;overflow=fill;fontSize=12;fontFamily=Helvetica;html=1;rounded=0;shadow=0;comic=0;labelBackgroundColor=none;strokeWidth=1" vertex="1" parent="1">
          <mxGeometry x="365" y="10" width="120" height="80" as="geometry" />
        </mxCell>
        <mxCell id="wI_4iZvUZmhfUL_TO4hT-46" value="" style="edgeStyle=orthogonalEdgeStyle;rounded=0;orthogonalLoop=1;jettySize=auto;html=1;startArrow=none;startFill=0;endArrow=diamondThin;endFill=0;startSize=6;endSize=7;sourcePerimeterSpacing=18;targetPerimeterSpacing=0;strokeWidth=1;entryX=0;entryY=0.25;entryDx=0;entryDy=0;exitX=1;exitY=0.25;exitDx=0;exitDy=0;dashed=1;" edge="1" parent="1" source="wI_4iZvUZmhfUL_TO4hT-12" target="wI_4iZvUZmhfUL_TO4hT-33">
          <mxGeometry relative="1" as="geometry">
            <Array as="points">
              <mxPoint x="640" y="197" />
            </Array>
          </mxGeometry>
        </mxCell>
        <mxCell id="wI_4iZvUZmhfUL_TO4hT-12" value="&lt;p style=&quot;text-align: center ; margin: 4px 0px 0px&quot;&gt;&lt;font face=&quot;nunito, sans-serif&quot;&gt;&lt;span style=&quot;font-size: 16px ; letter-spacing: -0.64px ; background-color: rgb(255 , 255 , 255)&quot;&gt;Uçaklar&lt;/span&gt;&lt;/font&gt;&lt;/p&gt;&lt;hr size=&quot;1&quot;&gt;&lt;p style=&quot;margin: 0px ; margin-left: 4px&quot;&gt;+ ucakTipi : String&lt;/p&gt;&lt;hr size=&quot;1&quot;&gt;&lt;p style=&quot;margin: 0px ; margin-left: 4px&quot;&gt;+ calisirDurumda() : Boolean&lt;/p&gt;&lt;p style=&quot;margin: 0px ; margin-left: 4px&quot;&gt;+ onarımDurumda() : Boolean&lt;br&gt;&lt;/p&gt;&lt;p style=&quot;margin: 0px ; margin-left: 4px&quot;&gt;+ pilotIhtiyaci () : int&lt;/p&gt;" style="verticalAlign=top;align=left;overflow=fill;fontSize=12;fontFamily=Helvetica;html=1;rounded=0;shadow=0;comic=0;labelBackgroundColor=none;strokeWidth=1" vertex="1" parent="1">
          <mxGeometry x="60" y="170" width="170" height="110" as="geometry" />
        </mxCell>
        <mxCell id="wI_4iZvUZmhfUL_TO4hT-41" style="edgeStyle=orthogonalEdgeStyle;rounded=0;orthogonalLoop=1;jettySize=auto;html=1;entryX=0.5;entryY=1;entryDx=0;entryDy=0;startArrow=diamondThin;startFill=1;endArrow=diamond;endFill=1;startSize=6;endSize=0;sourcePerimeterSpacing=18;targetPerimeterSpacing=0;strokeWidth=1;exitX=0.5;exitY=1;exitDx=0;exitDy=0;" edge="1" parent="1" source="wI_4iZvUZmhfUL_TO4hT-17" target="wI_4iZvUZmhfUL_TO4hT-37">
          <mxGeometry relative="1" as="geometry">
            <Array as="points">
              <mxPoint x="415" y="420" />
              <mxPoint x="420" y="420" />
              <mxPoint x="420" y="460" />
              <mxPoint x="790" y="460" />
            </Array>
          </mxGeometry>
        </mxCell>
        <mxCell id="wI_4iZvUZmhfUL_TO4hT-17" value="&lt;p style=&quot;text-align: center ; margin: 4px 0px 0px&quot;&gt;&lt;font face=&quot;nunito, sans-serif&quot;&gt;&lt;span style=&quot;font-size: 16px ; letter-spacing: -0.64px ; background-color: rgb(255 , 255 , 255)&quot;&gt;Uçuşlar&lt;/span&gt;&lt;/font&gt;&lt;/p&gt;&lt;hr size=&quot;1&quot;&gt;&lt;p style=&quot;margin: 0px ; margin-left: 4px&quot;&gt;&amp;nbsp;+ id : int&lt;/p&gt;&lt;p style=&quot;margin: 0px ; margin-left: 4px&quot;&gt;+ kalkisHavaalani : String&lt;/p&gt;&lt;p style=&quot;margin: 0px ; margin-left: 4px&quot;&gt;+ inisHavaalani : String&lt;br&gt;&lt;/p&gt;&lt;div&gt;+ kalkisSaati : int&lt;br&gt;&lt;/div&gt;&lt;div&gt;&lt;div&gt;+ inisSaati : int&lt;/div&gt;&lt;/div&gt;&lt;hr size=&quot;1&quot;&gt;&lt;p style=&quot;margin: 0px ; margin-left: 4px&quot;&gt;&lt;br&gt;&lt;/p&gt;" style="verticalAlign=top;align=left;overflow=fill;fontSize=12;fontFamily=Helvetica;html=1;rounded=0;shadow=0;comic=0;labelBackgroundColor=none;strokeWidth=1" vertex="1" parent="1">
          <mxGeometry x="345" y="250" width="140" height="140" as="geometry" />
        </mxCell>
        <mxCell id="wI_4iZvUZmhfUL_TO4hT-29" value="1" style="text;html=1;resizable=0;autosize=1;align=center;verticalAlign=middle;points=[];fillColor=none;strokeColor=none;rounded=0;" vertex="1" parent="1">
          <mxGeometry x="430" y="90" width="20" height="20" as="geometry" />
        </mxCell>
        <mxCell id="wI_4iZvUZmhfUL_TO4hT-30" value="1..*" style="text;html=1;resizable=0;autosize=1;align=center;verticalAlign=middle;points=[];fillColor=none;strokeColor=none;rounded=0;" vertex="1" parent="1">
          <mxGeometry x="115" y="140" width="30" height="20" as="geometry" />
        </mxCell>
        <mxCell id="wI_4iZvUZmhfUL_TO4hT-31" value="1..*" style="text;html=1;resizable=0;autosize=1;align=center;verticalAlign=middle;points=[];fillColor=none;strokeColor=none;rounded=0;" vertex="1" parent="1">
          <mxGeometry x="410" y="230" width="30" height="20" as="geometry" />
        </mxCell>
        <mxCell id="wI_4iZvUZmhfUL_TO4hT-36" value="" style="edgeStyle=orthogonalEdgeStyle;rounded=0;orthogonalLoop=1;jettySize=auto;html=1;startArrow=none;startFill=0;endArrow=none;endFill=0;startSize=6;endSize=0;sourcePerimeterSpacing=18;targetPerimeterSpacing=0;strokeWidth=1;" edge="1" parent="1" source="wI_4iZvUZmhfUL_TO4hT-33" target="wI_4iZvUZmhfUL_TO4hT-35">
          <mxGeometry relative="1" as="geometry">
            <Array as="points">
              <mxPoint x="710" y="280" />
              <mxPoint x="650" y="280" />
            </Array>
          </mxGeometry>
        </mxCell>
        <mxCell id="wI_4iZvUZmhfUL_TO4hT-38" value="" style="edgeStyle=orthogonalEdgeStyle;rounded=0;orthogonalLoop=1;jettySize=auto;html=1;startArrow=block;startFill=0;endArrow=none;endFill=0;startSize=12;endSize=6;sourcePerimeterSpacing=0;targetPerimeterSpacing=0;strokeWidth=1;" edge="1" parent="1" source="wI_4iZvUZmhfUL_TO4hT-33" target="wI_4iZvUZmhfUL_TO4hT-37">
          <mxGeometry relative="1" as="geometry">
            <Array as="points">
              <mxPoint x="710" y="280" />
              <mxPoint x="790" y="280" />
            </Array>
          </mxGeometry>
        </mxCell>
        <mxCell id="wI_4iZvUZmhfUL_TO4hT-33" value="&lt;p style=&quot;margin: 0px ; margin-top: 4px ; text-align: center&quot;&gt;&lt;span style=&quot;font-family: &amp;#34;nunito&amp;#34; , sans-serif ; font-size: 16px ; letter-spacing: -0.64px ; text-align: left ; background-color: rgb(255 , 255 , 255)&quot;&gt;pilot&lt;/span&gt;&lt;br&gt;&lt;/p&gt;&lt;hr size=&quot;1&quot;&gt;&lt;p style=&quot;margin: 0px ; margin-left: 4px&quot;&gt;+ tecrube : String&lt;br&gt;&lt;/p&gt;&lt;hr size=&quot;1&quot;&gt;&lt;p style=&quot;margin: 0px ; margin-left: 4px&quot;&gt;&lt;br&gt;&lt;/p&gt;" style="verticalAlign=top;align=left;overflow=fill;fontSize=12;fontFamily=Helvetica;html=1;rounded=0;shadow=0;comic=0;labelBackgroundColor=none;strokeWidth=1" vertex="1" parent="1">
          <mxGeometry x="640" y="170" width="120" height="80" as="geometry" />
        </mxCell>
        <mxCell id="wI_4iZvUZmhfUL_TO4hT-40" value="" style="edgeStyle=orthogonalEdgeStyle;rounded=0;orthogonalLoop=1;jettySize=auto;html=1;startArrow=none;startFill=0;endArrow=none;endFill=0;startSize=6;endSize=0;sourcePerimeterSpacing=18;targetPerimeterSpacing=0;strokeWidth=1;exitX=0.25;exitY=1;exitDx=0;exitDy=0;" edge="1" parent="1" source="wI_4iZvUZmhfUL_TO4hT-35">
          <mxGeometry relative="1" as="geometry">
            <mxPoint x="630" y="460" as="sourcePoint" />
            <mxPoint x="420" y="420" as="targetPoint" />
            <Array as="points">
              <mxPoint x="620" y="420" />
            </Array>
          </mxGeometry>
        </mxCell>
        <mxCell id="wI_4iZvUZmhfUL_TO4hT-35" value="&lt;p style=&quot;margin: 0px ; margin-top: 4px ; text-align: center&quot;&gt;&lt;span style=&quot;font-family: &amp;#34;nunito&amp;#34; , sans-serif ; font-size: 16px ; letter-spacing: -0.64px ; text-align: left ; background-color: rgb(255 , 255 , 255)&quot;&gt;&amp;nbsp;kaptan&amp;nbsp;&lt;/span&gt;&lt;span style=&quot;background-color: rgb(255 , 255 , 255) ; font-family: &amp;#34;nunito&amp;#34; , sans-serif ; font-size: 16px ; letter-spacing: -0.64px ; text-align: left&quot;&gt;pilot&lt;/span&gt;&lt;/p&gt;&lt;hr size=&quot;1&quot;&gt;&lt;p style=&quot;margin: 0px ; margin-left: 4px&quot;&gt;&lt;br&gt;&lt;/p&gt;&lt;hr size=&quot;1&quot;&gt;&lt;p style=&quot;margin: 0px ; margin-left: 4px&quot;&gt;&lt;br&gt;&lt;/p&gt;" style="verticalAlign=top;align=left;overflow=fill;fontSize=12;fontFamily=Helvetica;html=1;rounded=0;shadow=0;comic=0;labelBackgroundColor=none;strokeWidth=1" vertex="1" parent="1">
          <mxGeometry x="590" y="310" width="120" height="80" as="geometry" />
        </mxCell>
        <mxCell id="wI_4iZvUZmhfUL_TO4hT-37" value="&lt;p style=&quot;margin: 0px ; margin-top: 4px ; text-align: center&quot;&gt;&lt;span style=&quot;font-family: &amp;#34;nunito&amp;#34; , sans-serif ; font-size: 16px ; letter-spacing: -0.64px ; text-align: left ; background-color: rgb(255 , 255 , 255)&quot;&gt;yardımcı pilot&lt;/span&gt;&lt;br&gt;&lt;/p&gt;&lt;hr size=&quot;1&quot;&gt;&lt;p style=&quot;margin: 0px ; margin-left: 4px&quot;&gt;&lt;br&gt;&lt;/p&gt;&lt;hr size=&quot;1&quot;&gt;&lt;p style=&quot;margin: 0px ; margin-left: 4px&quot;&gt;&lt;br&gt;&lt;/p&gt;" style="verticalAlign=top;align=left;overflow=fill;fontSize=12;fontFamily=Helvetica;html=1;rounded=0;shadow=0;comic=0;labelBackgroundColor=none;strokeWidth=1" vertex="1" parent="1">
          <mxGeometry x="730" y="310" width="120" height="80" as="geometry" />
        </mxCell>
        <mxCell id="wI_4iZvUZmhfUL_TO4hT-42" value="1..*" style="text;html=1;resizable=0;autosize=1;align=center;verticalAlign=middle;points=[];fillColor=none;strokeColor=none;rounded=0;" vertex="1" parent="1">
          <mxGeometry x="620" y="290" width="30" height="20" as="geometry" />
        </mxCell>
        <mxCell id="wI_4iZvUZmhfUL_TO4hT-43" value="1..*" style="text;html=1;resizable=0;autosize=1;align=center;verticalAlign=middle;points=[];fillColor=none;strokeColor=none;rounded=0;" vertex="1" parent="1">
          <mxGeometry x="760" y="290" width="30" height="20" as="geometry" />
        </mxCell>
        <mxCell id="wI_4iZvUZmhfUL_TO4hT-45" value="" style="edgeStyle=orthogonalEdgeStyle;rounded=0;orthogonalLoop=1;jettySize=auto;html=1;startArrow=none;startFill=0;endArrow=diamondThin;endFill=0;startSize=6;endSize=7;sourcePerimeterSpacing=18;targetPerimeterSpacing=0;strokeWidth=1;exitX=0.5;exitY=0;exitDx=0;exitDy=0;entryX=0.25;entryY=1;entryDx=0;entryDy=0;" edge="1" parent="1" source="wI_4iZvUZmhfUL_TO4hT-44" target="wI_4iZvUZmhfUL_TO4hT-17">
          <mxGeometry relative="1" as="geometry" />
        </mxCell>
        <mxCell id="wI_4iZvUZmhfUL_TO4hT-44" value="&lt;p style=&quot;text-align: center ; margin: 4px 0px 0px&quot;&gt;&lt;font face=&quot;nunito, sans-serif&quot;&gt;&lt;span style=&quot;font-size: 16px ; letter-spacing: -0.64px ; background-color: rgb(255 , 255 , 255)&quot;&gt;Havaalanı&lt;/span&gt;&lt;/font&gt;&lt;/p&gt;&lt;hr size=&quot;1&quot;&gt;&lt;p style=&quot;margin: 0px ; margin-left: 4px&quot;&gt;+ id : int&lt;br&gt;&lt;/p&gt;&lt;p style=&quot;margin: 0px ; margin-left: 4px&quot;&gt;+ isim : String&lt;/p&gt;&lt;hr size=&quot;1&quot;&gt;&lt;p style=&quot;margin: 0px ; margin-left: 4px&quot;&gt;&lt;br&gt;&lt;/p&gt;" style="verticalAlign=top;align=left;overflow=fill;fontSize=12;fontFamily=Helvetica;html=1;rounded=0;shadow=0;comic=0;labelBackgroundColor=none;strokeWidth=1" vertex="1" parent="1">
          <mxGeometry x="260" y="440" width="120" height="100" as="geometry" />
        </mxCell>
      </root>
    </mxGraphModel>
  </diagram>
</mxfile>
